<svg width="24" height="24" viewBox="0 0 24 24" fill="none" xmlns="http://www.w3.org/2000/svg">
<path d="M15.25 6.75H3.25" stroke="#278AC9"/>
<path d="M19.25 6.75C19.25 7.85457 18.3546 8.75 17.25 8.75C16.1454 8.75 15.25 7.85457 15.25 6.75C15.25 5.64543 16.1454 4.75 17.25 4.75C18.3546 4.75 19.25 5.64543 19.25 6.75Z" fill="#85BEE9" stroke="#0C63AD"/>
<path d="M3.25 11.75H12.25M3.25 15.75H8.25" stroke="#797774"/>
<path d="M14.25 11.75C14.25 12.3023 13.8023 12.75 13.25 12.75C12.6977 12.75 12.25 12.3023 12.25 11.75C12.25 11.1977 12.6977 10.75 13.25 10.75C13.8023 10.75 14.25 11.1977 14.25 11.75Z" fill="#B6B3B2" stroke="#797774"/>
<path d="M10.25 15.75C10.25 16.3023 9.80228 16.75 9.25 16.75C8.69772 16.75 8.25 16.3023 8.25 15.75C8.25 15.1977 8.69772 14.75 9.25 14.75C9.80228 14.75 10.25 15.1977 10.25 15.75Z" fill="#BBB9B8" stroke="#797774"/>
<path d="M3.25 3.25V20.75H20.75" stroke="#3A3A38"/>
</svg>
