<svg width="24" height="24" viewBox="0 0 24 24" fill="none" xmlns="http://www.w3.org/2000/svg">
<path d="M6.25 16.75V5.75H10.25V16.75H6.25Z" fill="#85BEE9" stroke="#0C63AD"/>
<path d="M14.25 5.75V10.75H18.25V5.75H14.25Z" fill="#C8C6C4" stroke="#797774"/>
<path d="M6.25 20.75V16.75H10.25V20.75H14.25V10.75H18.25V20.75H14.25H10.25H6.25Z" fill="#FAFAFA"/>
<path d="M3.25 3.25V18.75V20.75H6.25M20.75 20.75H18.25M6.25 20.75V16.75H10.25V20.75M6.25 20.75H10.25M10.25 20.75H14.25M14.25 20.75V10.75H18.25V20.75M14.25 20.75H18.25" stroke="#3A3A38"/>
<path d="M3.25 18.75L9.25 12.75L14.25 16.75L20.25 10.75" stroke="#3A3A38"/>
</svg>
