<svg width="24" height="24" viewBox="0 0 24 24" fill="none" xmlns="http://www.w3.org/2000/svg">
<path d="M9.5 6.5H14.5V11.5V15.5H9.5H3.5V11.5V6.5H9.5Z" fill="#FAFAFA"/>
<path d="M9.5 6.5H14.5V11.5M9.5 6.5H3.5V11.5M9.5 6.5V15.5M9.5 15.5H3.5V11.5M9.5 15.5H14.5V11.5M14.5 11.5H3.5" stroke="#797774"/>
<path d="M20.5 3.5H3.5V6.5H20.5V3.5Z" fill="#C8C6C4" stroke="#3A3A38"/>
<path d="M20.5 20.5H14.5H9.5H3.5V15.5H9.5H14.5V11.5V6.5H20.5V11.5V15.5V20.5Z" fill="#85BEE9"/>
<path d="M14.5 20.5H20.5V15.5M14.5 20.5V15.5M14.5 20.5H9.5M14.5 11.5V6.5H20.5V11.5M14.5 11.5H20.5M14.5 11.5V15.5M20.5 11.5V15.5M20.5 15.5H14.5M14.5 15.5H9.5M9.5 20.5H3.5V15.5H9.5M9.5 20.5V15.5" stroke="#0C63AD"/>
<path d="M3.5 20.5V6.5H20.5V20.5H3.5Z" stroke="#3A3A38"/>
</svg>
