<svg width="24" height="24" viewBox="0 0 24 24" fill="none" xmlns="http://www.w3.org/2000/svg">
<path d="M5.25 2.5H13.75L18.75 7.5V21.5H5.25V2.5Z" fill="#F3F2F1"/>
<path d="M13.75 2.5H5.25V21.5H18.75V7.5M13.75 2.5L18.75 7.5M13.75 2.5V7.5H18.75" stroke="#3A3A38"/>
<path d="M14.75 19V11H16.75V19H14.75Z" fill="#3A3A38"/>
<path d="M11.25 16H12.75V19H11.25V16Z" fill="#3A3A38"/>
<path d="M7.25 13.5H9.25V19H7.25V13.5Z" fill="#3A3A38"/>
<path d="M14.75 19V11H16.75V19H14.75Z" stroke="#3A3A38"/>
<path d="M11.25 16H12.75V19H11.25V16Z" stroke="#3A3A38"/>
<path d="M7.25 13.5H9.25V19H7.25V13.5Z" stroke="#3A3A38"/>
</svg>
