<svg width="24" height="24" viewBox="0 0 24 24" fill="none" xmlns="http://www.w3.org/2000/svg">
<mask id="path-1-inside-1_501_3785" fill="white">
<path d="M18.7175 18.7175C20.0461 17.3889 20.9509 15.6962 21.3175 13.8534C21.684 12.0105 21.4959 10.1004 20.7769 8.36451C20.0578 6.62861 18.8402 5.14491 17.2779 4.10104C15.7157 3.05717 13.8789 2.5 12 2.5L12 12L18.7175 18.7175Z"/>
</mask>
<path d="M18.7175 18.7175C20.0461 17.3889 20.9509 15.6962 21.3175 13.8534C21.684 12.0105 21.4959 10.1004 20.7769 8.36451C20.0578 6.62861 18.8402 5.14491 17.2779 4.10104C15.7157 3.05717 13.8789 2.5 12 2.5L12 12L18.7175 18.7175Z" fill="#85BEE9" stroke="#0C63AD" stroke-width="2" mask="url(#path-1-inside-1_501_3785)"/>
<mask id="path-2-inside-2_501_3785" fill="white">
<path d="M12 2.5C10.4377 2.5 8.89954 2.88529 7.52173 3.62175C6.14392 4.3582 4.969 5.42309 4.10104 6.72208C3.23308 8.02107 2.69888 9.51408 2.54575 11.0688C2.39261 12.6236 2.62528 14.1921 3.22314 15.6355C3.821 17.0789 4.7656 18.3525 5.97326 19.3436C7.18093 20.3347 8.61438 21.0127 10.1466 21.3175C11.6789 21.6222 13.2627 21.5444 14.7577 21.0909C16.2527 20.6374 17.6128 19.8222 18.7175 18.7175L12 12V2.5Z"/>
</mask>
<path d="M12 2.5C10.4377 2.5 8.89954 2.88529 7.52173 3.62175C6.14392 4.3582 4.969 5.42309 4.10104 6.72208C3.23308 8.02107 2.69888 9.51408 2.54575 11.0688C2.39261 12.6236 2.62528 14.1921 3.22314 15.6355C3.821 17.0789 4.7656 18.3525 5.97326 19.3436C7.18093 20.3347 8.61438 21.0127 10.1466 21.3175C11.6789 21.6222 13.2627 21.5444 14.7577 21.0909C16.2527 20.6374 17.6128 19.8222 18.7175 18.7175L12 12V2.5Z" stroke="#3A3A38" stroke-width="2" mask="url(#path-2-inside-2_501_3785)"/>
<path d="M12 3.5C10.6022 3.5 9.22591 3.84474 7.99313 4.50367C6.76035 5.1626 5.7091 6.1154 4.93251 7.27765C4.15591 8.43991 3.67794 9.77575 3.54093 11.1669C3.40392 12.558 3.6121 13.9614 4.14702 15.2528C4.68195 16.5442 5.52712 17.6838 6.60766 18.5706C7.6882 19.4574 8.97076 20.064 10.3417 20.3367C11.7127 20.6094 13.1298 20.5398 14.4674 20.134C15.8051 19.7282 17.022 18.9988 18.0104 18.0104L12 12V3.5Z" fill="#FAFAFA"/>
</svg>
