<svg width="24" height="24" viewBox="0 0 24 24" fill="none" xmlns="http://www.w3.org/2000/svg">
<path d="M4.5 5H14.0401C14.332 5 14.6093 5.12756 14.7993 5.34921L14.9286 5.5L17.7143 8.75L19.9658 11.3768C20.2763 11.7391 20.2877 12.2702 19.9929 12.6454L15.3003 18.6178C15.1107 18.8591 14.8208 19 14.514 19H8.98571H4.22034C3.82251 19 3.5 18.6775 3.5 18.2797C3.5 18.0998 3.56732 17.9264 3.68871 17.7936L8.98571 12L3.79197 6.79273C3.605 6.60527 3.5 6.35131 3.5 6.08655V6C3.5 5.44772 3.94772 5 4.5 5Z" fill="#FAFAFA"/>
<path d="M14.9286 5.5L14.7993 5.34921C14.6093 5.12756 14.332 5 14.0401 5H4.5C3.94772 5 3.5 5.44772 3.5 6V6.08655C3.5 6.35131 3.605 6.60527 3.79197 6.79273L8.98571 12M14.9286 5.5L8.98571 12M14.9286 5.5L17.7143 8.75M8.98571 12L3.68871 17.7936C3.56732 17.9264 3.5 18.0998 3.5 18.2797V18.2797C3.5 18.6775 3.82251 19 4.22034 19H8.98571M17.7143 8.75L19.9658 11.3768C20.2763 11.7391 20.2877 12.2702 19.9929 12.6454L15.3003 18.6178C15.1107 18.8591 14.8208 19 14.514 19H8.98571M17.7143 8.75L8.98571 19" stroke="#127EDF"/>
</svg>
