<svg width="24" height="24" viewBox="0 0 24 24" fill="none" xmlns="http://www.w3.org/2000/svg">
<mask id="path-1-outside-1_501_3797" maskUnits="userSpaceOnUse" x="7.5" y="5.5" width="10" height="13" fill="black">
<rect fill="white" x="7.5" y="5.5" width="10" height="13"/>
<path d="M7.9446 17.5V5.86364H12.3082C13.2022 5.86364 13.9522 6.01894 14.5582 6.32955C15.1681 6.64015 15.6283 7.07576 15.9389 7.63636C16.2533 8.19318 16.4105 8.8428 16.4105 9.58523C16.4105 10.3314 16.2514 10.9792 15.9332 11.5284C15.6188 12.0739 15.1548 12.4962 14.5412 12.7955C13.9276 13.0909 13.1738 13.2386 12.2798 13.2386H9.17188V11.4886H11.9957C12.5185 11.4886 12.9465 11.4167 13.2798 11.2727C13.6132 11.125 13.8594 10.911 14.0185 10.6307C14.1813 10.3466 14.2628 9.99811 14.2628 9.58523C14.2628 9.17235 14.1813 8.82008 14.0185 8.52841C13.8556 8.23295 13.6075 8.00947 13.2741 7.85795C12.9408 7.70265 12.5109 7.625 11.9844 7.625H10.0526V17.5H7.9446ZM13.956 12.2273L16.8366 17.5H14.4844L11.6548 12.2273H13.956Z"/>
</mask>
<path d="M7.9446 17.5V5.86364H12.3082C13.2022 5.86364 13.9522 6.01894 14.5582 6.32955C15.1681 6.64015 15.6283 7.07576 15.9389 7.63636C16.2533 8.19318 16.4105 8.8428 16.4105 9.58523C16.4105 10.3314 16.2514 10.9792 15.9332 11.5284C15.6188 12.0739 15.1548 12.4962 14.5412 12.7955C13.9276 13.0909 13.1738 13.2386 12.2798 13.2386H9.17188V11.4886H11.9957C12.5185 11.4886 12.9465 11.4167 13.2798 11.2727C13.6132 11.125 13.8594 10.911 14.0185 10.6307C14.1813 10.3466 14.2628 9.99811 14.2628 9.58523C14.2628 9.17235 14.1813 8.82008 14.0185 8.52841C13.8556 8.23295 13.6075 8.00947 13.2741 7.85795C12.9408 7.70265 12.5109 7.625 11.9844 7.625H10.0526V17.5H7.9446ZM13.956 12.2273L16.8366 17.5H14.4844L11.6548 12.2273H13.956Z" fill="#278AC9"/>
<path d="M7.9446 17.5H7.6946V17.75H7.9446V17.5ZM7.9446 5.86364V5.61364H7.6946V5.86364H7.9446ZM14.5582 6.32955L14.4442 6.55203L14.4448 6.55232L14.5582 6.32955ZM15.9389 7.63636L15.7202 7.75753L15.7212 7.75928L15.9389 7.63636ZM15.9332 11.5284L15.7169 11.4031L15.7166 11.4036L15.9332 11.5284ZM14.5412 12.7955L14.6496 13.0207L14.6508 13.0202L14.5412 12.7955ZM9.17188 13.2386H8.92188V13.4886H9.17188V13.2386ZM9.17188 11.4886V11.2386H8.92188V11.4886H9.17188ZM13.2798 11.2727L13.3789 11.5023L13.3811 11.5013L13.2798 11.2727ZM14.0185 10.6307L13.8016 10.5063L13.801 10.5073L14.0185 10.6307ZM14.0185 8.52841L13.7995 8.64911L13.8002 8.6503L14.0185 8.52841ZM13.2741 7.85795L13.1686 8.08458L13.1707 8.08555L13.2741 7.85795ZM10.0526 7.625V7.375H9.80256V7.625H10.0526ZM10.0526 17.5V17.75H10.3026V17.5H10.0526ZM13.956 12.2273L14.1754 12.1074L14.1043 11.9773H13.956V12.2273ZM16.8366 17.5V17.75H17.2581L17.056 17.3801L16.8366 17.5ZM14.4844 17.5L14.2641 17.6182L14.3348 17.75H14.4844V17.5ZM11.6548 12.2273V11.9773H11.2369L11.4345 12.3455L11.6548 12.2273ZM8.1946 17.5V5.86364H7.6946V17.5H8.1946ZM7.9446 6.11364H12.3082V5.61364H7.9446V6.11364ZM12.3082 6.11364C13.1745 6.11364 13.8827 6.26426 14.4442 6.55203L14.6723 6.10706C14.0216 5.77362 13.2299 5.61364 12.3082 5.61364V6.11364ZM14.4448 6.55232C15.0134 6.84191 15.4355 7.24353 15.7202 7.75752L16.1576 7.5152C15.8212 6.90798 15.3228 6.43839 14.6717 6.10677L14.4448 6.55232ZM15.7212 7.75928C16.0112 8.27294 16.1605 8.87887 16.1605 9.58523H16.6605C16.6605 8.80673 16.4954 8.11343 16.1566 7.51345L15.7212 7.75928ZM16.1605 9.58523C16.1605 10.2952 16.0094 10.8981 15.7169 11.4031L16.1496 11.6537C16.4934 11.0602 16.6605 10.3677 16.6605 9.58523H16.1605ZM15.7166 11.4036C15.4293 11.9021 15.0044 12.2914 14.4316 12.5707L14.6508 13.0202C15.3053 12.701 15.8084 12.2456 16.1498 11.6533L15.7166 11.4036ZM14.4327 12.5702C13.8618 12.8451 13.1475 12.9886 12.2798 12.9886V13.4886C13.2001 13.4886 13.9933 13.3367 14.6496 13.0207L14.4327 12.5702ZM12.2798 12.9886H9.17188V13.4886H12.2798V12.9886ZM9.42188 13.2386V11.4886H8.92188V13.2386H9.42188ZM9.17188 11.7386H11.9957V11.2386H9.17188V11.7386ZM11.9957 11.7386C12.5387 11.7386 13.0037 11.6643 13.3789 11.5022L13.1807 11.0432C12.8893 11.1691 12.4982 11.2386 11.9957 11.2386V11.7386ZM13.3811 11.5013C13.7567 11.3348 14.0469 11.087 14.2359 10.7541L13.801 10.5073C13.6718 10.735 13.4696 10.9152 13.1785 11.0442L13.3811 11.5013ZM14.2353 10.755C14.4249 10.4244 14.5128 10.0305 14.5128 9.58523H14.0128C14.0128 9.96568 13.9378 10.2688 13.8016 10.5063L14.2353 10.755ZM14.5128 9.58523C14.5128 9.13963 14.4248 8.74326 14.2367 8.40652L13.8002 8.6503C13.9379 8.89689 14.0128 9.20507 14.0128 9.58523H14.5128ZM14.2374 8.40771C14.0463 8.06104 13.7555 7.80214 13.3776 7.63036L13.1707 8.08555C13.4595 8.2168 13.6649 8.40487 13.7995 8.6491L14.2374 8.40771ZM13.3797 7.63134C13.0022 7.45547 12.5328 7.375 11.9844 7.375V7.875C12.489 7.875 12.8794 7.94983 13.1686 8.08457L13.3797 7.63134ZM11.9844 7.375H10.0526V7.875H11.9844V7.375ZM9.80256 7.625V17.5H10.3026V7.625H9.80256ZM10.0526 17.25H7.9446V17.75H10.0526V17.25ZM13.7366 12.3471L16.6173 17.6199L17.056 17.3801L14.1754 12.1074L13.7366 12.3471ZM16.8366 17.25H14.4844V17.75H16.8366V17.25ZM14.7047 17.3818L11.8751 12.1091L11.4345 12.3455L14.2641 17.6182L14.7047 17.3818ZM11.6548 12.4773H13.956V11.9773H11.6548V12.4773Z" fill="#2A76A6" mask="url(#path-1-outside-1_501_3797)"/>
</svg>
