<svg width="24" height="24" viewBox="0 0 24 24" fill="none" xmlns="http://www.w3.org/2000/svg">
<path d="M9.25 18.4807C8.24937 18.5392 7.30036 18.5101 5.75 18.4807V15.4807L7.75 15.4807C9.31129 14.3517 9.77755 13.6471 10.75 12.7499C11.859 12.4203 13.3401 12.4648 14.25 12.7496L17.75 15.4804L19.75 15.4807V17.9807H17.25C15.9709 17.0982 15.282 16.6154 13.25 15.4807C12.52 15.0596 12.0986 14.8485 11.25 15.4807C10.5488 16.6915 10.1834 17.3894 9.25 18.4807Z" fill="#F7DB97"/>
<path d="M5.75 14.9807V15.4807M5.75 15.4807V18.4807C7.30036 18.5101 8.24937 18.5392 9.25 18.4807C10.1834 17.3894 10.5488 16.6915 11.25 15.4807C12.0986 14.8485 12.52 15.0596 13.25 15.4807C15.282 16.6154 15.9709 17.0982 17.25 17.9807H19.75V15.4807L17.75 15.4804L14.25 12.7496C13.3401 12.4648 11.859 12.4203 10.75 12.7499C9.77755 13.6471 9.31129 14.3517 7.75 15.4807L5.75 15.4807Z" stroke="#DB6E23"/>
<path d="M5.75 9.75V6.75H6.75C8.40623 8.37111 9.26431 8.90987 10.75 9.75C11.6899 10.0494 12.1474 10.0863 12.75 9.75C14.2059 8.23899 15.4272 7.34705 17.75 5.75H19.75V8.75H18.75C16.2466 10.1117 14.9227 12.1928 14.4227 12.1928C13.0798 12.7164 11.8773 12.669 10.4227 12.1928L5.75 9.75Z" fill="#C8C6C4" stroke="#777572"/>
<path d="M5.75 13.75V11.25H7.25C8.58854 11.3016 11.0536 15.5431 11.75 15.4918H13.5205C14.5339 15.3371 16.7588 9.76154 17.75 9.75H19.75V11.75H18.25C16.5845 14.619 15.25 18.75 14.25 18.75C13.25 18.75 11.25 18.8301 10.75 18.75C10.25 18.6699 7.25 13.75 6.75 13.75H5.75Z" fill="#85BEE9" stroke="#0C63AD"/>
<path d="M3.25 3.25V20.75H20.75" stroke="#3A3A38"/>
</svg>
