<svg width="24" height="24" viewBox="0 0 24 24" fill="none" xmlns="http://www.w3.org/2000/svg">
<path d="M6.25 15.75H8.25V17.75H6.25V15.75Z" fill="#3A3A38"/>
<path d="M16.25 6.75V4.75H18.25V6.75H16.25Z" fill="#3A3A38"/>
<path d="M3.25 3.25V20.75H20.75M8.25 15.75H6.25V17.75H8.25V15.75ZM16.25 4.75V6.75H18.25V4.75H16.25Z" stroke="#3A3A38"/>
<path d="M8.25 7.75H6.25V9.75H8.25V7.75Z" fill="#85BEE9"/>
<path d="M13.25 10.75H11.25V12.75H13.25V10.75Z" fill="#85BEE9"/>
<path d="M18.25 14.75H16.25V16.75H18.25V14.75Z" fill="#85BEE9"/>
<path d="M8.25 7.75H6.25V9.75H8.25V7.75Z" stroke="#85BEE9"/>
<path d="M13.25 10.75H11.25V12.75H13.25V10.75Z" stroke="#85BEE9"/>
<path d="M18.25 14.75H16.25V16.75H18.25V14.75Z" stroke="#85BEE9"/>
</svg>
