<svg width="24" height="24" viewBox="0 0 24 24" fill="none" xmlns="http://www.w3.org/2000/svg">
<path d="M3.5 20.5L4 15L11 7H20V11.5H11.5V15L14.5 17.5V20.5H3.5Z" fill="#FAFAFA"/>
<path d="M12.5 14.5V12.5H21.5V14.5L18.5 17V21.5H15.5V17L12.5 14.5Z" fill="#FAFAFA"/>
<path d="M11.5 3.5H20.5V6.5M20.5 6.5H11.5M20.5 6.5V11.5M3.5 15V20.5H14.5M12.5 12.5V14.5L15.5 17V21.5H18.5V17L21.5 14.5V12.5H12.5Z" stroke="#3A3A38"/>
<path d="M9.5 12.5V9.5H9L6.5 12.5H9.5Z" fill="#C8C6C4" stroke="#797774"/>
<path d="M6.5 14.5H9.5V17.5H6.5V14.5Z" fill="#C8C6C4" stroke="#797774"/>
<path d="M11.5 6.5L12 3.5H20.5V6.5H11.5Z" fill="#C8C6C4" stroke="#3A3A38"/>
<path d="M5.5 2.5H10.5L7.5 6.5H9.5L2.5 14L4.5 7.5H2.5L5.5 2.5Z" fill="#F7DB97" stroke="#DB6E23"/>
</svg>
