<svg width="24" height="24" viewBox="0 0 24 24" fill="none" xmlns="http://www.w3.org/2000/svg">
<path d="M19.25 4.75V20.75H16.25H8.25H5.25V8.75H8.25V20.75H16.25V4.75H19.25Z" fill="#FAFAFA"/>
<path d="M3.25 3.25V20.75H5.25M20.75 20.75H19.25M19.25 20.75V4.75H16.25M19.25 20.75H16.25M14.75 4.75H16.25M16.25 4.75V20.75M16.25 20.75H8.25M9.75 8.75H8.25M5.25 20.75V8.75H8.25M5.25 20.75H8.25M8.25 8.75V20.75" stroke="#3A3A38"/>
<path d="M9.75 8.75H10.25M10.25 8.75H11.25V13.75H12.75H10.25V8.75Z" stroke="#797774"/>
<path d="M13.75 4.25V14.25" stroke="#0C63AD" stroke-width="2"/>
</svg>
