<svg width="24" height="24" viewBox="0 0 24 24" fill="none" xmlns="http://www.w3.org/2000/svg">
<path d="M9.5 3.75V5.75M19.5 4.25V11.25M3.5 14.75H4.5V15.75V17.25" stroke="#85BEE9"/>
<path d="M21.875 14.25C21.875 15.0094 21.2594 15.625 20.5 15.625C19.7406 15.625 19.125 15.0094 19.125 14.25C19.125 13.4906 19.7406 12.875 20.5 12.875C21.2594 12.875 21.875 13.4906 21.875 14.25Z" fill="#DB6E23" stroke="#A9774B" stroke-width="0.25"/>
<path d="M20.8242 19.25C20.8242 20.5617 19.7609 21.625 18.4492 21.625C17.1375 21.625 16.0742 20.5617 16.0742 19.25C16.0742 17.9383 17.1375 16.875 18.4492 16.875C19.7609 16.875 20.8242 17.9383 20.8242 19.25Z" fill="#DB6E23" stroke="#A9764A" stroke-width="0.25"/>
<path d="M17.25 5.75H9.75C9.33579 5.75 9 5.41421 9 5C9 4.58579 9.33579 4.25 9.75 4.25H17.25C19.0449 4.25 20.5 5.70507 20.5 7.5V9.25C20.5 10.0784 19.8284 10.75 19 10.75C18.0807 10.75 17.2403 11.2694 16.8292 12.0916L16.7207 12.3087C16.5756 12.5989 16.5 12.9189 16.5 13.2434V13.7166C16.5 14.3338 16.1051 14.8816 15.5197 15.0768C15.185 15.1883 14.9032 15.4193 14.7282 15.7256L13.3602 18.1197C13.1377 18.509 13.1428 18.988 13.3735 19.3725C13.8693 20.1988 13.2741 21.25 12.3105 21.25H5.1967C3.9835 21.25 3 20.2665 3 19.0533V16.1642C3 15.2733 4.07714 14.8271 4.70711 15.4571C4.89464 15.6446 5 15.899 5 16.1642V16.9216C5 18.4837 6.26633 19.75 7.82843 19.75H8.34861C9.06794 19.75 9.73967 19.3905 10.1387 18.792C10.3743 18.4386 10.5 18.0233 10.5 17.5986V16.75V16.6481C10.5 16.3833 10.4739 16.1193 10.4219 15.8597L10.1925 14.7123C10.0722 14.1111 10.2604 13.4896 10.6939 13.0561C10.8952 12.8548 11.1406 12.7031 11.4107 12.6131L12.3906 12.2865C12.4634 12.2622 12.5345 12.2328 12.6031 12.1984C13.1528 11.9236 13.5 11.3618 13.5 10.7473V9.55902C13.5 9.3558 13.5473 9.15537 13.6382 8.97361C13.8599 8.53013 14.3132 8.25 14.809 8.25H15.0068C15.3284 8.25 15.6428 8.3452 15.9104 8.52359L16.6132 8.99217C16.8654 9.16029 17.1617 9.25 17.4648 9.25C18.3127 9.25 19 8.56267 19 7.71482V7.5C19 6.5335 18.2165 5.75 17.25 5.75Z" fill="#85BEE9"/>
<path d="M3.5 14.25V21.25H14" stroke="#0C63AD"/>
<path d="M9 4.25H20.5V11.25H18" stroke="#0C63AD"/>
<path d="M14 21.25V21.25C14.1845 21.25 14.2769 21.0269 14.1464 20.8964L13.5891 20.3391C13.5305 20.2805 13.4864 20.2091 13.4602 20.1305L13.2927 19.6281C13.1027 19.0581 13.1027 18.4419 13.2927 17.8719L13.6225 16.8825C13.8601 16.1696 14.4196 15.6101 15.1325 15.3725L15.3675 15.2942C15.4553 15.2649 15.5471 15.25 15.6396 15.25V15.25C16.1148 15.25 16.5 14.8648 16.5 14.3896V13.2958C16.5 12.6425 16.8265 12.0323 17.3702 11.6699L17.584 11.5274C17.8552 11.3465 18.174 11.25 18.5 11.25V11.25" stroke="#0C63AD"/>
<path d="M2 9.39922V3.48607C2 3.33082 2.03615 3.17771 2.10557 3.03885L2.22361 2.80279C2.393 2.464 2.73926 2.25 3.11803 2.25H5.88197C6.26074 2.25 6.607 2.464 6.77639 2.80279L6.89443 3.03885C6.96385 3.17771 7 3.33082 7 3.48607V9.39922C7 9.62629 6.92272 9.8466 6.78087 10.0239L5.30024 11.8747C5.11047 12.1119 4.82316 12.25 4.51938 12.25H4.48062C4.17684 12.25 3.88953 12.1119 3.69976 11.8747L2.21913 10.0239C2.07728 9.8466 2 9.62629 2 9.39922Z" fill="#DB6E23" stroke="#A9764A" stroke-width="0.5"/>
<path d="M6 5.75C6 6.57843 5.32843 7.25 4.5 7.25C3.67157 7.25 3 6.57843 3 5.75C3 4.92157 3.67157 4.25 4.5 4.25C5.32843 4.25 6 4.92157 6 5.75Z" fill="#FAFAFA"/>
</svg>
