<svg width="36" height="36" viewBox="0 0 36 36" fill="none" xmlns="http://www.w3.org/2000/svg">
<path d="M5 19H20V13.5H20.5L27 19H28.5H31V7H5V19Z" fill="#FAFAFA"/>
<path d="M21.5 29V16L31 24.5H26.5L28.5 28L26 29.5L24 26L21.5 29Z" fill="#FAFAFA"/>
<path d="M28.5 19.5H31.5V6.5H4.5V19.5H20M28 12.5H15M21.5 16V29L24 26L26 29.5L28.5 28L26.5 24.5H31L21.5 16Z" stroke="#3A3A38"/>
<path d="M10.55 10.5C11.6546 10.5 12.55 11.3954 12.55 12.5C12.55 13.6046 11.6546 14.5 10.55 14.5C9.44548 14.5 8.55005 13.6046 8.55005 12.5C8.55005 11.3954 9.44548 10.5 10.55 10.5Z" fill="#D9D9D9" stroke="black"/>
</svg>
