<svg width="24" height="24" viewBox="0 0 24 24" fill="none" xmlns="http://www.w3.org/2000/svg">
<path d="M20.5 5.5H3.5V18.5H20.5V5.5Z" fill="#FAFAFA" stroke="#3A3A38"/>
<path d="M5 16.5H19" stroke="#797774"/>
<path d="M7.8718 8.68182V14.5H6.81783V9.70739H6.78374L5.42294 10.5767V9.6108L6.86896 8.68182H7.8718ZM9.34908 14.5V13.7386L11.369 11.7585C11.5621 11.5634 11.7231 11.3902 11.8519 11.2386C11.9807 11.0871 12.0773 10.9403 12.1417 10.7983C12.2061 10.6562 12.2383 10.5047 12.2383 10.3438C12.2383 10.16 12.1966 10.0028 12.1133 9.87216C12.0299 9.73958 11.9154 9.63731 11.7695 9.56534C11.6237 9.49337 11.458 9.45739 11.2724 9.45739C11.0811 9.45739 10.9135 9.49716 10.7695 9.5767C10.6256 9.65436 10.5138 9.76515 10.4343 9.90909C10.3567 10.053 10.3178 10.2244 10.3178 10.4233H9.31499C9.31499 10.054 9.39927 9.73295 9.56783 9.46023C9.73639 9.1875 9.96839 8.97633 10.2638 8.8267C10.5612 8.67708 10.9021 8.60227 11.2866 8.60227C11.6767 8.60227 12.0195 8.67519 12.315 8.82102C12.6104 8.96686 12.8396 9.16667 13.0025 9.42045C13.1673 9.67424 13.2496 9.96401 13.2496 10.2898C13.2496 10.5076 13.208 10.7216 13.1246 10.9318C13.0413 11.142 12.8945 11.375 12.6843 11.6307C12.476 11.8864 12.1834 12.196 11.8065 12.5597L10.8036 13.5795V13.6193H13.3377V14.5H9.34908ZM16.4059 14.5795C15.9968 14.5795 15.6332 14.5095 15.315 14.3693C14.9987 14.2292 14.7487 14.0341 14.565 13.7841C14.3813 13.5341 14.2837 13.2453 14.2724 12.9176H15.3406C15.35 13.0748 15.4021 13.2121 15.4968 13.3295C15.5915 13.4451 15.7174 13.535 15.8746 13.5994C16.0318 13.6638 16.208 13.696 16.4031 13.696C16.6114 13.696 16.796 13.66 16.957 13.5881C17.118 13.5142 17.244 13.4119 17.3349 13.2812C17.4258 13.1506 17.4703 13 17.4684 12.8295C17.4703 12.6534 17.4248 12.4981 17.332 12.3636C17.2392 12.2292 17.1048 12.1241 16.9286 12.0483C16.7544 11.9725 16.5442 11.9347 16.2979 11.9347H15.7837V11.1222H16.2979C16.5006 11.1222 16.6777 11.0871 16.8292 11.017C16.9826 10.947 17.1029 10.8485 17.19 10.7216C17.2771 10.5928 17.3197 10.4441 17.3178 10.2756C17.3197 10.1108 17.2828 9.9678 17.207 9.84659C17.1332 9.72348 17.0281 9.62784 16.8917 9.55966C16.7572 9.49148 16.5991 9.45739 16.4173 9.45739C16.2392 9.45739 16.0745 9.48958 15.9229 9.55398C15.7714 9.61837 15.6493 9.71023 15.5565 9.82955C15.4637 9.94697 15.4144 10.0871 15.4087 10.25H14.3945C14.4021 9.92424 14.4959 9.63826 14.6758 9.39205C14.8576 9.14394 15.1 8.95076 15.4031 8.8125C15.7061 8.67235 16.046 8.60227 16.4229 8.60227C16.8112 8.60227 17.1483 8.67519 17.4343 8.82102C17.7222 8.96496 17.9447 9.15909 18.1019 9.40341C18.2591 9.64773 18.3377 9.91761 18.3377 10.2131C18.3396 10.5407 18.243 10.8153 18.0479 11.0369C17.8548 11.2585 17.601 11.4034 17.2866 11.4716V11.517C17.6957 11.5739 18.0091 11.7254 18.2269 11.9716C18.4466 12.2159 18.5555 12.5199 18.5536 12.8835C18.5536 13.2093 18.4608 13.5009 18.2752 13.7585C18.0915 14.0142 17.8377 14.215 17.5138 14.3608C17.1919 14.5066 16.8226 14.5795 16.4059 14.5795Z" fill="#80BBDE"/>
</svg>
