<svg width="24" height="24" viewBox="0 0 24 24" fill="none" xmlns="http://www.w3.org/2000/svg">
<path d="M12 7H21V20H4V16.5" stroke="#3A3A38"/>
<path d="M12 7.5L4.5 16.5V19.5H20.5V7.5H12Z" fill="#FAFAFA"/>
<path d="M5.5 18H19.5" stroke="#3A3A38"/>
<path d="M6 4H11L8 8H10L3 15.5L5 9H3L6 4Z" fill="#F7DB97" stroke="#DB6E23"/>
<path d="M8 12.5V16.5M10.5 11L11.0744 10.4256C11.3469 10.1531 11.7165 10 12.1019 10H12.191C12.6868 10 13.1401 10.2801 13.3618 10.7236V10.7236C13.4527 10.9054 13.5 11.1058 13.5 11.309V11.5027C13.5 12.1346 13.2193 12.7339 12.7338 13.1385L11.2682 14.3598C10.7814 14.7655 10.5 15.3664 10.5 16V16M10.5 16.5V16M10.5 16H14M17.5 13L17.6779 12.8221C17.8913 12.6087 18.0688 12.3624 18.2037 12.0926L18.3377 11.8247C18.4444 11.6112 18.5 11.3757 18.5 11.137V10.8536C18.5 10.6272 18.4101 10.4101 18.25 10.25V10.25C18.0899 10.0899 17.8728 10 17.6464 10H16.8536C16.6272 10 16.4101 10.0899 16.25 10.25V10.25C16.0899 10.4101 16 10.6272 16 10.8536V11M17.5 13H16M17.5 13L18.322 13.411C18.4399 13.4699 18.5475 13.5475 18.6407 13.6407V13.6407C18.8708 13.8708 19 14.1828 19 14.5081V15.1464C19 15.3728 18.9101 15.5899 18.75 15.75V15.75C18.5899 15.9101 18.3728 16 18.1464 16H17.5H16.3536C16.1272 16 15.9101 15.9101 15.75 15.75V15.75C15.5899 15.5899 15.5 15.3728 15.5 15.1464V15" stroke="#80BBDD"/>
</svg>
