<svg width="24" height="24" viewBox="0 0 24 24" fill="none" xmlns="http://www.w3.org/2000/svg">
<path d="M14.5884 3.38024C13.0055 2.90494 11.3224 2.87464 9.72351 3.29267C8.12461 3.71069 6.67168 4.5609 5.52402 5.75006C4.37637 6.93923 3.5783 8.42143 3.21732 10.0342C2.85634 11.6469 2.94639 13.3279 3.47759 14.8928L8.16492 13.3018C7.92587 12.5976 7.88535 11.8411 8.04779 11.1154C8.21023 10.3896 8.56937 9.72265 9.08581 9.18753C9.60226 8.6524 10.2561 8.26981 10.9756 8.0817C11.6951 7.89359 12.4525 7.90722 13.1648 8.12111L14.5884 3.38024Z" fill="#D9D9D9"/>
<mask id="path-2-inside-1_501_3784" fill="white">
<path d="M14.5884 3.38024C13.0055 2.90494 11.3224 2.87464 9.72351 3.29267C8.12461 3.71069 6.67168 4.5609 5.52402 5.75006C4.37637 6.93923 3.5783 8.42143 3.21732 10.0342C2.85634 11.6469 2.94639 13.3279 3.47759 14.8928L8.16492 13.3018C7.92587 12.5976 7.88535 11.8411 8.04779 11.1154C8.21023 10.3896 8.56937 9.72265 9.08581 9.18753C9.60226 8.6524 10.2561 8.26981 10.9756 8.0817C11.6951 7.89359 12.4525 7.90722 13.1648 8.12111L14.5884 3.38024Z"/>
</mask>
<path d="M14.5884 3.38024C13.0055 2.90494 11.3224 2.87464 9.72351 3.29267C8.12461 3.71069 6.67168 4.5609 5.52402 5.75006C4.37637 6.93923 3.5783 8.42143 3.21732 10.0342C2.85634 11.6469 2.94639 13.3279 3.47759 14.8928L8.16492 13.3018C7.92587 12.5976 7.88535 11.8411 8.04779 11.1154C8.21023 10.3896 8.56937 9.72265 9.08581 9.18753C9.60226 8.6524 10.2561 8.26981 10.9756 8.0817C11.6951 7.89359 12.4525 7.90722 13.1648 8.12111L14.5884 3.38024Z" fill="#FAFAFA" stroke="black" stroke-width="2" mask="url(#path-2-inside-1_501_3784)"/>
<mask id="path-3-inside-2_501_3784" fill="white">
<path d="M3 12C3 13.78 3.52784 15.5201 4.51677 17.0001C5.50571 18.4802 6.91131 19.6337 8.55585 20.3149C10.2004 20.9961 12.01 21.1743 13.7558 20.8271C15.5016 20.4798 17.1053 19.6226 18.364 18.364C19.6226 17.1053 20.4798 15.5016 20.8271 13.7558C21.1743 12.01 20.9961 10.2004 20.3149 8.55585C19.6337 6.91131 18.4802 5.50571 17.0001 4.51677C15.5201 3.52784 13.78 3 12 3L12 7.95C12.801 7.95 13.584 8.18753 14.2501 8.63255C14.9161 9.07757 15.4352 9.71009 15.7417 10.4501C16.0482 11.1902 16.1285 12.0045 15.9722 12.7901C15.8159 13.5757 15.4302 14.2974 14.8638 14.8638C14.2974 15.4302 13.5757 15.8159 12.7901 15.9722C12.0045 16.1285 11.1902 16.0482 10.4501 15.7417C9.71009 15.4352 9.07757 14.9161 8.63255 14.2501C8.18753 13.584 7.95 12.801 7.95 12L3 12Z"/>
</mask>
<path d="M3 12C3 13.78 3.52784 15.5201 4.51677 17.0001C5.50571 18.4802 6.91131 19.6337 8.55585 20.3149C10.2004 20.9961 12.01 21.1743 13.7558 20.8271C15.5016 20.4798 17.1053 19.6226 18.364 18.364C19.6226 17.1053 20.4798 15.5016 20.8271 13.7558C21.1743 12.01 20.9961 10.2004 20.3149 8.55585C19.6337 6.91131 18.4802 5.50571 17.0001 4.51677C15.5201 3.52784 13.78 3 12 3L12 7.95C12.801 7.95 13.584 8.18753 14.2501 8.63255C14.9161 9.07757 15.4352 9.71009 15.7417 10.4501C16.0482 11.1902 16.1285 12.0045 15.9722 12.7901C15.8159 13.5757 15.4302 14.2974 14.8638 14.8638C14.2974 15.4302 13.5757 15.8159 12.7901 15.9722C12.0045 16.1285 11.1902 16.0482 10.4501 15.7417C9.71009 15.4352 9.07757 14.9161 8.63255 14.2501C8.18753 13.584 7.95 12.801 7.95 12L3 12Z" fill="#85BEE9" stroke="#0B62AC" stroke-width="2" mask="url(#path-3-inside-2_501_3784)"/>
</svg>
