<svg width="24" height="24" viewBox="0 0 24 24" fill="none" xmlns="http://www.w3.org/2000/svg">
<path d="M5.04241 11.6173C5.94355 10.3332 7.18046 9.32626 8.61338 8.70382L9.96822 12.4045C9.30247 12.6707 8.55633 13.0493 8.09085 13.7125C7.62576 14.3753 7.49599 15.2414 7.46163 15.9819L3.51683 15.9661C3.61494 14.4069 4.14127 12.9013 5.04241 11.6173Z" fill="#FAFAFA" stroke="black"/>
<path d="M19.3011 12.1475C20.0002 13.3202 20.4053 14.6419 20.4853 16H16.5224C16.4511 15.3551 16.2425 14.7308 15.9082 14.1701C15.4896 13.4679 14.9609 12.9516 14.2369 12.5602C13.534 12.1801 12.6478 11.9188 11.8092 11.954C11.1571 11.9814 10.5205 12.1486 9.94178 12.4421L7.77164 9.12633C8.9518 8.44957 10.2795 8.06472 11.6436 8.00748C13.1746 7.94323 14.6946 8.29406 16.0425 9.02285C17.3905 9.75164 18.5164 10.8313 19.3011 12.1475Z" fill="#85BEE9" stroke="#0E64AD"/>
<path d="M12.7372 15.423C12.7372 15.6435 12.646 15.8521 12.5 16.0002C12.344 16.1586 12.1008 16.249 11.8565 16.249C11.3835 16.249 11 15.8792 11 15.423C11 15.1769 11.1116 14.956 11.2886 14.8046C11.4397 14.6754 11.6386 14.5969 11.8565 14.5969C12.3295 14.5969 12.7372 14.9668 12.7372 15.423Z" fill="#3A3A38"/>
<path d="M16 11.5L11.2894 14.8042L12.5004 16L16 11.5Z" fill="#3A3A38"/>
</svg>
