<svg width="36" height="36" viewBox="0 0 36 36" fill="none" xmlns="http://www.w3.org/2000/svg">
<path d="M4 24.5H13V15.6574L30 15.5V5.5H4V24.5Z" fill="#FAFAFA"/>
<path d="M13 25H3.5V18M30.5 15.5V5H3.5V18M3.5 18L11 10.5L16 15.5" stroke="#3A3A38"/>
<path d="M26.937 10.5C26.937 11.6046 26.0416 12.5 24.937 12.5C23.8324 12.5 22.937 11.6046 22.937 10.5C22.937 9.39543 23.8324 8.5 24.937 8.5C26.0416 8.5 26.937 9.39543 26.937 10.5Z" fill="#3A3A38"/>
<path d="M14.5 28H23.5H32.5V17H14.5V28Z" fill="#FAFAFA"/>
<path d="M20 31H23.5M27 31H23.5M23.5 31V28M23.5 28H14.5V17H32.5V28H23.5Z" stroke="#278AC9"/>
</svg>
