<svg width="24" height="24" viewBox="0 0 24 24" fill="none" xmlns="http://www.w3.org/2000/svg">
<mask id="path-1-inside-1_501_3790" fill="white">
<path d="M18.6569 16.7934C17.7616 17.6887 16.6666 18.3587 15.462 18.7483C14.2574 19.1379 12.9774 19.2361 11.7275 19.0347C10.4775 18.8333 9.2932 18.3381 8.2719 17.5899C7.25059 16.8416 6.42147 15.8616 5.8527 14.7305C5.28393 13.5993 4.99175 12.3493 5.00018 11.0833C5.00861 9.81723 5.31741 8.57125 5.9012 7.44779C6.48499 6.32433 7.32708 5.35547 8.35826 4.62087C9.38944 3.88626 10.5802 3.40689 11.8328 3.22217L11.9275 3.86435C10.7766 4.03409 9.6824 4.47456 8.7349 5.14956C7.78739 5.82456 7.01362 6.7148 6.4772 7.7471C5.94079 8.7794 5.65704 9.92428 5.64929 11.0876C5.64155 12.2509 5.91002 13.3995 6.43264 14.4388C6.95526 15.4782 7.71711 16.3787 8.65554 17.0662C9.59397 17.7538 10.6822 18.2088 11.8307 18.3938C12.9793 18.5789 14.1553 18.4887 15.2622 18.1307C16.3691 17.7727 17.3752 17.157 18.1979 16.3344L18.6569 16.7934Z"/>
</mask>
<path d="M18.6569 16.7934C17.7616 17.6887 16.6666 18.3587 15.462 18.7483C14.2574 19.1379 12.9774 19.2361 11.7275 19.0347C10.4775 18.8333 9.2932 18.3381 8.2719 17.5899C7.25059 16.8416 6.42147 15.8616 5.8527 14.7305C5.28393 13.5993 4.99175 12.3493 5.00018 11.0833C5.00861 9.81723 5.31741 8.57125 5.9012 7.44779C6.48499 6.32433 7.32708 5.35547 8.35826 4.62087C9.38944 3.88626 10.5802 3.40689 11.8328 3.22217L11.9275 3.86435C10.7766 4.03409 9.6824 4.47456 8.7349 5.14956C7.78739 5.82456 7.01362 6.7148 6.4772 7.7471C5.94079 8.7794 5.65704 9.92428 5.64929 11.0876C5.64155 12.2509 5.91002 13.3995 6.43264 14.4388C6.95526 15.4782 7.71711 16.3787 8.65554 17.0662C9.59397 17.7538 10.6822 18.2088 11.8307 18.3938C12.9793 18.5789 14.1553 18.4887 15.2622 18.1307C16.3691 17.7727 17.3752 17.157 18.1979 16.3344L18.6569 16.7934Z" fill="#D9D9D9"/>
<path d="M18.6569 16.7934L19.364 17.5005L20.0711 16.7934L19.364 16.0863L18.6569 16.7934ZM11.8328 3.22217L12.8221 3.07627L12.6762 2.08697L11.6869 2.23287L11.8328 3.22217ZM11.9275 3.86435L12.0734 4.85365L13.0627 4.70775L12.9168 3.71845L11.9275 3.86435ZM18.1979 16.3344L18.905 15.6273L18.1979 14.9202L17.4907 15.6273L18.1979 16.3344ZM17.9497 16.0863C17.1664 16.8697 16.2083 17.4559 15.1543 17.7968L15.7697 19.6998C17.125 19.2614 18.3568 18.5077 19.364 17.5005L17.9497 16.0863ZM15.1543 17.7968C14.1002 18.1378 12.9803 18.2237 11.8865 18.0474L11.5684 20.022C12.9746 20.2485 14.4145 20.1381 15.7697 19.6998L15.1543 17.7968ZM11.8865 18.0474C10.7928 17.8712 9.75655 17.4379 8.86291 16.7832L7.68088 18.3965C8.82985 19.2383 10.1622 19.7954 11.5684 20.022L11.8865 18.0474ZM8.86291 16.7832C7.96927 16.1285 7.24379 15.271 6.74611 14.2812L4.95929 15.1797C5.59916 16.4522 6.53192 17.5547 7.68088 18.3965L8.86291 16.7832ZM6.74611 14.2812C6.24844 13.2915 5.99278 12.1977 6.00016 11.0899L4.0002 11.0766C3.99071 12.5009 4.31942 13.9072 4.95929 15.1797L6.74611 14.2812ZM6.00016 11.0899C6.00753 9.98215 6.27774 8.89192 6.78855 7.90889L5.01385 6.9867C4.35709 8.25059 4.00968 9.65231 4.0002 11.0766L6.00016 11.0899ZM6.78855 7.90889C7.29936 6.92586 8.0362 6.07811 8.93848 5.43533L7.77804 3.8064C6.61797 4.63283 5.67061 5.7228 5.01385 6.9867L6.78855 7.90889ZM8.93848 5.43533C9.84076 4.79255 10.8827 4.3731 11.9787 4.21147L11.6869 2.23287C10.2778 2.44068 8.93812 2.97998 7.77804 3.8064L8.93848 5.43533ZM10.8435 3.36807L10.9382 4.01025L12.9168 3.71845L12.8221 3.07627L10.8435 3.36807ZM11.7816 2.87505C10.4741 3.06788 9.23108 3.56827 8.15468 4.3351L9.31511 5.96402C10.1337 5.38085 11.0791 5.0003 12.0734 4.85365L11.7816 2.87505ZM8.15468 4.3351C7.07828 5.10192 6.19924 6.11327 5.58985 7.28601L7.36455 8.2082C7.828 7.31633 8.49651 6.54719 9.31511 5.96402L8.15468 4.3351ZM5.58985 7.28601C4.98046 8.45874 4.65812 9.75937 4.64932 11.081L6.64927 11.0943C6.65596 10.0892 6.90111 9.10007 7.36455 8.2082L5.58985 7.28601ZM4.64932 11.081C4.64051 12.4025 4.94551 13.7073 5.53923 14.8881L7.32605 13.9896C6.87453 13.0916 6.64258 12.0993 6.64927 11.0943L4.64932 11.081ZM5.53923 14.8881C6.13295 16.0688 6.99843 17.0918 8.06453 17.8729L9.24655 16.2596C8.43578 15.6655 7.77758 14.8876 7.32605 13.9896L5.53923 14.8881ZM8.06453 17.8729C9.13062 18.654 10.3669 19.1709 11.6717 19.3811L11.9898 17.4066C10.9975 17.2467 10.0573 16.8536 9.24655 16.2596L8.06453 17.8729ZM11.6717 19.3811C12.9765 19.5913 14.3125 19.4889 15.57 19.0821L14.9545 17.1792C13.9982 17.4885 12.9821 17.5664 11.9898 17.4066L11.6717 19.3811ZM15.57 19.0821C16.8275 18.6754 17.9704 17.976 18.905 17.0415L17.4907 15.6273C16.78 16.338 15.9108 16.8699 14.9545 17.1792L15.57 19.0821ZM17.4907 17.0415L17.9497 17.5005L19.364 16.0863L18.905 15.6273L17.4907 17.0415Z" fill="#3A3A38" mask="url(#path-1-inside-1_501_3790)"/>
<circle cx="13" cy="10.7778" r="5.5" fill="#FAFAFA" stroke="#3A3A38"/>
<path d="M13.7824 8.25145L14.7087 6.70767C14.8894 6.40647 15.2149 6.22217 15.5662 6.22217H16.0316C16.3284 6.22217 16.6099 6.35399 16.7998 6.58198L18.632 8.78057C18.8556 9.04883 18.8991 9.42398 18.7429 9.73631L18.6618 9.89856C18.5626 10.0969 18.3599 10.2222 18.1382 10.2222C18.0473 10.2222 17.9577 10.201 17.8764 10.1604L17.0883 9.76632C17.0298 9.73708 16.9764 9.6986 16.9302 9.65236C16.6926 9.41477 16.3074 9.41477 16.0698 9.65236L16.045 9.67712C16.0151 9.70708 15.9822 9.73401 15.947 9.75751L15.4425 10.0938C14.9421 10.4275 14.2624 10.247 13.9934 9.70898L13.7455 9.21316C13.5926 8.90736 13.6065 8.54463 13.7824 8.25145Z" fill="#378F4F"/>
<path d="M15.5 13.2222V13.7222V14.9861C15.5 15.1413 15.4639 15.2945 15.3944 15.4333L15.1491 15.924C15.0523 16.1176 14.8954 16.2745 14.7019 16.3712L14.6447 16.3998C14.2597 16.5923 13.7947 16.5169 13.4903 16.2125L11.7929 14.5151C11.6054 14.3275 11.5 14.0732 11.5 13.808V13.0757C11.5 12.8493 11.5899 12.6322 11.75 12.4722C11.9101 12.3121 12.1272 12.2222 12.3536 12.2222H14.5C15.0523 12.2222 15.5 12.6699 15.5 13.2222Z" fill="#378F4F"/>
<path d="M10 10.464V10.3006C10 9.62591 9.24805 9.22347 8.68666 9.59773C8.56434 9.67927 8.46542 9.79133 8.39967 9.92282L8.10557 10.511C8.03615 10.6499 8 10.803 8 10.9582V12.9029C8 13.0792 8.14293 13.2222 8.31925 13.2222C8.43139 13.2222 8.5353 13.1633 8.593 13.0672L9.86716 10.9436C9.95408 10.7987 10 10.6329 10 10.464Z" fill="#378F4F"/>
<path d="M12.2572 7.19318L12.4111 6.57779C12.4633 6.36879 12.6511 6.22217 12.8666 6.22217H13.1464C13.3417 6.22217 13.5 6.38046 13.5 6.57572C13.5 6.66949 13.4628 6.75942 13.3964 6.82572L12.75 7.47217C12.5393 7.68286 12.185 7.48225 12.2572 7.19318Z" fill="#378F4F"/>
<circle cx="13" cy="10.7778" r="5.5" stroke="#3A3A38"/>
<path d="M12.5 18.7778V20.7778H6H19" stroke="#3A3A38"/>
</svg>
