<svg width="24" height="24" viewBox="0 0 24 24" fill="none" xmlns="http://www.w3.org/2000/svg">
<path d="M6.25 3.5V6.5H6.75L8.25 7L9.75 8L10.25 10L9.75 12L8.25 13L6.75 13.5H6.25V20.5H19.25V8.5H14.25V3.5H6.25Z" fill="#FAFAFA"/>
<path d="M6.25 6.5V3.5H14.25M14.25 3.5L19.25 8.5M14.25 3.5V8.5H19.25M19.25 8.5V20.5H6.25V13.5" stroke="#3A3A38"/>
<path d="M8.25 10C8.25 10.8284 7.57843 11.5 6.75 11.5C5.92157 11.5 5.25 10.8284 5.25 10C5.25 9.17157 5.92157 8.5 6.75 8.5C7.57843 8.5 8.25 9.17157 8.25 10Z" fill="#85BEE9" stroke="#0C63AD"/>
<path d="M10.75 11.5H16.75M8.75 14.5H14.75" stroke="#278AC9"/>
</svg>
