<svg width="24" height="24" viewBox="0 0 24 24" fill="none" xmlns="http://www.w3.org/2000/svg">
<path d="M4.01236 11.3694L9.83141 4.20749C9.93807 4.07622 10.0982 4 10.2673 4C10.4163 4 10.5592 4.05918 10.6645 4.16451L12 5.5L12.7681 4.73191C13.1682 4.33183 13.8202 4.34307 14.2063 4.7567L17.2333 8L20.2866 11.2714C20.4237 11.4183 20.5 11.6118 20.5 11.8127C20.5 11.9359 20.4713 12.0574 20.4162 12.1675L20.0551 12.8899C20.0185 12.963 19.9731 13.0314 19.9199 13.0935L17.2333 16.2278L14.2993 19.6508C14.1093 19.8724 13.832 20 13.5401 20H13.4142C13.149 20 12.8946 19.8946 12.7071 19.7071L11.5 18.5L10.784 19.216C10.3647 19.6353 9.67474 19.5997 9.30081 19.1395L4.01236 12.6306C3.71384 12.2632 3.71384 11.7368 4.01236 11.3694Z" fill="#FAFAFA"/>
<path d="M11.5 18.5L10.784 19.216C10.3647 19.6353 9.67474 19.5997 9.30081 19.1395L4.01236 12.6306C3.71384 12.2632 3.71384 11.7368 4.01236 11.3694L9.83141 4.20749C9.93807 4.07622 10.0982 4 10.2673 4V4C10.4163 4 10.5592 4.05918 10.6645 4.16451L12 5.5M11.5 18.5L10.1667 17.1667C9.79234 16.7923 9.77467 16.191 10.1264 15.7953L13.5 12M11.5 18.5L12.7071 19.7071C12.8946 19.8946 13.149 20 13.4142 20H13.5401C13.832 20 14.1093 19.8724 14.2993 19.6508L17.2333 16.2278M13.5 12L10.2071 8.70711C9.81658 8.31658 9.81658 7.68342 10.2071 7.29289L12 5.5M13.5 12L17.2333 8M13.5 12L17.2333 16.2278M17.2333 8L14.2063 4.7567C13.8202 4.34307 13.1682 4.33183 12.7681 4.73191L12 5.5M17.2333 8L20.2866 11.2714C20.4237 11.4183 20.5 11.6118 20.5 11.8127V11.8127C20.5 11.9359 20.4713 12.0574 20.4162 12.1675L20.0551 12.8899C20.0185 12.963 19.9731 13.0314 19.9199 13.0935L17.2333 16.2278" stroke="#903197"/>
</svg>
