<svg width="24" height="24" viewBox="0 0 24 24" fill="none" xmlns="http://www.w3.org/2000/svg">
<mask id="path-1-outside-1_501_3795" maskUnits="userSpaceOnUse" x="3" y="5.5" width="19" height="16" fill="black">
<rect fill="white" x="3" y="5.5" width="19" height="16"/>
<path d="M3.38991 17.5V5.86364H7.75355C8.64749 5.86364 9.39749 6.0303 10.0036 6.36364C10.6134 6.69697 11.0736 7.1553 11.3842 7.73864C11.6986 8.31818 11.8558 8.97727 11.8558 9.71591C11.8558 10.4621 11.6986 11.125 11.3842 11.7045C11.0698 12.2841 10.6058 12.7405 9.99219 13.0739C9.37855 13.4034 8.62287 13.5682 7.72514 13.5682H4.8331V11.8352H7.44105C7.96378 11.8352 8.39181 11.7443 8.72514 11.5625C9.05848 11.3807 9.30469 11.1307 9.46378 10.8125C9.62666 10.4943 9.7081 10.1288 9.7081 9.71591C9.7081 9.30303 9.62666 8.93939 9.46378 8.625C9.30469 8.31061 9.05658 8.06629 8.71946 7.89205C8.38613 7.71402 7.9562 7.625 7.42969 7.625H5.49787V17.5H3.38991ZM14.8743 20.7727C14.594 20.7727 14.3345 20.75 14.0959 20.7045C13.861 20.6629 13.6735 20.6136 13.5334 20.5568L14.0107 18.9545C14.3099 19.0417 14.5769 19.0833 14.8118 19.0795C15.0466 19.0758 15.2531 19.0019 15.4311 18.858C15.6129 18.7178 15.7663 18.483 15.8913 18.1534L16.0675 17.6818L12.9027 8.77273H15.0845L17.0959 15.3636H17.1868L19.2038 8.77273H21.3913L17.897 18.5568C17.7341 19.0189 17.5182 19.4148 17.2493 19.7443C16.9804 20.0777 16.6508 20.3314 16.2607 20.5057C15.8743 20.6837 15.4122 20.7727 14.8743 20.7727Z"/>
</mask>
<path d="M3.38991 17.5V5.86364H7.75355C8.64749 5.86364 9.39749 6.0303 10.0036 6.36364C10.6134 6.69697 11.0736 7.1553 11.3842 7.73864C11.6986 8.31818 11.8558 8.97727 11.8558 9.71591C11.8558 10.4621 11.6986 11.125 11.3842 11.7045C11.0698 12.2841 10.6058 12.7405 9.99219 13.0739C9.37855 13.4034 8.62287 13.5682 7.72514 13.5682H4.8331V11.8352H7.44105C7.96378 11.8352 8.39181 11.7443 8.72514 11.5625C9.05848 11.3807 9.30469 11.1307 9.46378 10.8125C9.62666 10.4943 9.7081 10.1288 9.7081 9.71591C9.7081 9.30303 9.62666 8.93939 9.46378 8.625C9.30469 8.31061 9.05658 8.06629 8.71946 7.89205C8.38613 7.71402 7.9562 7.625 7.42969 7.625H5.49787V17.5H3.38991ZM14.8743 20.7727C14.594 20.7727 14.3345 20.75 14.0959 20.7045C13.861 20.6629 13.6735 20.6136 13.5334 20.5568L14.0107 18.9545C14.3099 19.0417 14.5769 19.0833 14.8118 19.0795C15.0466 19.0758 15.2531 19.0019 15.4311 18.858C15.6129 18.7178 15.7663 18.483 15.8913 18.1534L16.0675 17.6818L12.9027 8.77273H15.0845L17.0959 15.3636H17.1868L19.2038 8.77273H21.3913L17.897 18.5568C17.7341 19.0189 17.5182 19.4148 17.2493 19.7443C16.9804 20.0777 16.6508 20.3314 16.2607 20.5057C15.8743 20.6837 15.4122 20.7727 14.8743 20.7727Z" fill="#278AC9"/>
<path d="M3.38991 17.5H3.13991V17.75H3.38991V17.5ZM3.38991 5.86364V5.61364H3.13991V5.86364H3.38991ZM10.0036 6.36364L9.88307 6.58269L9.88365 6.58301L10.0036 6.36364ZM11.3842 7.73864L11.1636 7.85614L11.1645 7.85785L11.3842 7.73864ZM11.3842 11.7045L11.604 11.8238L11.3842 11.7045ZM9.99219 13.0739L10.1105 13.2941L10.1115 13.2935L9.99219 13.0739ZM4.8331 13.5682H4.5831V13.8182H4.8331V13.5682ZM4.8331 11.8352V11.5852H4.5831V11.8352H4.8331ZM8.72514 11.5625L8.84485 11.782L8.72514 11.5625ZM9.46378 10.8125L9.24123 10.6986L9.24017 10.7007L9.46378 10.8125ZM9.46378 8.625L9.2407 8.73788L9.2418 8.74L9.46378 8.625ZM8.71946 7.89205L8.60167 8.11258L8.60467 8.11413L8.71946 7.89205ZM5.49787 7.625V7.375H5.24787V7.625H5.49787ZM5.49787 17.5V17.75H5.74787V17.5H5.49787ZM3.63991 17.5V5.86364H3.13991V17.5H3.63991ZM3.38991 6.11364H7.75355V5.61364H3.38991V6.11364ZM7.75355 6.11364C8.61735 6.11364 9.32317 6.27474 9.88307 6.58269L10.124 6.14458C9.47181 5.78586 8.67763 5.61364 7.75355 5.61364V6.11364ZM9.88365 6.58301C10.453 6.89421 10.8771 7.31815 11.1636 7.85613L11.6049 7.62114C11.2702 6.99246 10.7738 6.49973 10.1235 6.14427L9.88365 6.58301ZM11.1645 7.85785C11.4567 8.39657 11.6058 9.01382 11.6058 9.71591H12.1058C12.1058 8.94073 11.9405 8.2398 11.604 7.61943L11.1645 7.85785ZM11.6058 9.71591C11.6058 10.426 11.4565 11.047 11.1645 11.5853L11.604 11.8238C11.9407 11.203 12.1058 10.4982 12.1058 9.71591H11.6058ZM11.1645 11.5853C10.8745 12.1198 10.4466 12.5425 9.87285 12.8542L10.1115 13.2935C10.765 12.9386 11.2651 12.4484 11.604 11.8238L11.1645 11.5853ZM9.87391 12.8536C9.30564 13.1588 8.59318 13.3182 7.72514 13.3182V13.8182C8.65255 13.8182 9.45147 13.648 10.1105 13.2941L9.87391 12.8536ZM7.72514 13.3182H4.8331V13.8182H7.72514V13.3182ZM5.0831 13.5682V11.8352H4.5831V13.5682H5.0831ZM4.8331 12.0852H7.44105V11.5852H4.8331V12.0852ZM7.44105 12.0852C7.99062 12.0852 8.46357 11.9899 8.84485 11.782L8.60543 11.343C8.32005 11.4987 7.93694 11.5852 7.44105 11.5852V12.0852ZM8.84485 11.782C9.21982 11.5774 9.5039 11.2913 9.68739 10.9243L9.24017 10.7007C9.10548 10.9701 8.89714 11.1839 8.60543 11.343L8.84485 11.782ZM9.68632 10.9264C9.86986 10.5679 9.9581 10.1622 9.9581 9.71591H9.4581C9.4581 10.0953 9.38346 10.4208 9.24124 10.6986L9.68632 10.9264ZM9.9581 9.71591C9.9581 9.26966 9.86988 8.8654 9.68576 8.51L9.2418 8.74C9.38343 9.01339 9.4581 9.3364 9.4581 9.71591H9.9581ZM9.68685 8.51212C9.50217 8.14718 9.21424 7.86636 8.83425 7.66996L8.60467 8.11413C8.89892 8.26622 9.1072 8.47404 9.24071 8.73788L9.68685 8.51212ZM8.83724 7.67153C8.45623 7.46803 7.98201 7.375 7.42969 7.375V7.875C7.9304 7.875 8.31602 7.96 8.60168 8.11256L8.83724 7.67153ZM7.42969 7.375H5.49787V7.875H7.42969V7.375ZM5.24787 7.625V17.5H5.74787V7.625H5.24787ZM5.49787 17.25H3.38991V17.75H5.49787V17.25ZM14.0959 20.7045L14.1427 20.4589L14.1396 20.4584L14.0959 20.7045ZM13.5334 20.5568L13.2938 20.4854L13.2289 20.7032L13.4395 20.7885L13.5334 20.5568ZM14.0107 18.9545L14.0805 18.7145L13.842 18.6451L13.7711 18.8832L14.0107 18.9545ZM14.8118 19.0795L14.8078 18.8296L14.8118 19.0795ZM15.4311 18.858L15.2784 18.6599L15.2739 18.6635L15.4311 18.858ZM15.8913 18.1534L16.1251 18.2421L16.1255 18.2409L15.8913 18.1534ZM16.0675 17.6818L16.3017 17.7693L16.3335 17.684L16.3031 17.5981L16.0675 17.6818ZM12.9027 8.77273V8.52273H12.5486L12.6671 8.85641L12.9027 8.77273ZM15.0845 8.77273L15.3236 8.69976L15.2696 8.52273H15.0845V8.77273ZM17.0959 15.3636L16.8568 15.4366L16.9108 15.6136H17.0959V15.3636ZM17.1868 15.3636V15.6136H17.3717L17.4258 15.4368L17.1868 15.3636ZM19.2038 8.77273V8.52273H19.0189L18.9648 8.69957L19.2038 8.77273ZM21.3913 8.77273L21.6268 8.85681L21.7461 8.52273H21.3913V8.77273ZM17.897 18.5568L17.6616 18.4727L17.6612 18.4737L17.897 18.5568ZM17.2493 19.7443L17.0556 19.5862L17.0547 19.5873L17.2493 19.7443ZM16.2607 20.5057L16.1587 20.2774L16.156 20.2786L16.2607 20.5057ZM14.8743 20.5227C14.6073 20.5227 14.3637 20.5011 14.1427 20.459L14.0491 20.9501C14.3053 20.9989 14.5806 21.0227 14.8743 21.0227V20.5227ZM14.1396 20.4584C13.9133 20.4182 13.7448 20.3728 13.6273 20.3251L13.4395 20.7885C13.6023 20.8545 13.8088 20.9075 14.0522 20.9507L14.1396 20.4584ZM13.773 20.6282L14.2502 19.0259L13.7711 18.8832L13.2938 20.4854L13.773 20.6282ZM13.9408 19.1946C14.2567 19.2866 14.5493 19.3338 14.8158 19.3295L14.8078 18.8296C14.6045 18.8329 14.3631 18.7968 14.0805 18.7145L13.9408 19.1946ZM14.8158 19.3295C15.1049 19.3249 15.3656 19.2324 15.5883 19.0524L15.2739 18.6635C15.1405 18.7714 14.9884 18.8267 14.8078 18.8296L14.8158 19.3295ZM15.5837 19.056C15.8168 18.8763 15.9918 18.5935 16.1251 18.2421L15.6576 18.0647C15.5409 18.3724 15.409 18.5593 15.2785 18.66L15.5837 19.056ZM16.1255 18.2409L16.3017 17.7693L15.8333 17.5943L15.6571 18.0659L16.1255 18.2409ZM16.3031 17.5981L13.1383 8.68904L12.6671 8.85641L15.8319 17.7655L16.3031 17.5981ZM12.9027 9.02273H15.0845V8.52273H12.9027V9.02273ZM14.8454 8.8457L16.8568 15.4366L17.335 15.2907L15.3236 8.69976L14.8454 8.8457ZM17.0959 15.6136H17.1868V15.1136H17.0959V15.6136ZM17.4258 15.4368L19.4429 8.84589L18.9648 8.69957L16.9477 15.2905L17.4258 15.4368ZM19.2038 9.02273H21.3913V8.52273H19.2038V9.02273ZM21.1559 8.68864L17.6616 18.4727L18.1325 18.6409L21.6268 8.85681L21.1559 8.68864ZM17.6612 18.4737C17.5065 18.9127 17.3037 19.2822 17.0556 19.5863L17.443 19.9024C17.7327 19.5474 17.9618 19.1252 18.1328 18.6399L17.6612 18.4737ZM17.0547 19.5873C16.8105 19.89 16.5127 20.1193 16.1587 20.2774L16.3626 20.734C16.7889 20.5436 17.1502 20.2653 17.4439 19.9013L17.0547 19.5873ZM16.156 20.2786C15.8099 20.4381 15.3853 20.5227 14.8743 20.5227V21.0227C15.439 21.0227 15.9386 20.9293 16.3653 20.7327L16.156 20.2786Z" fill="#2A76A6" mask="url(#path-1-outside-1_501_3795)"/>
</svg>
