<svg width="24" height="24" viewBox="0 0 24 24" fill="none" xmlns="http://www.w3.org/2000/svg">
<path d="M3 6H20V10.5H11V15L13.5 17V20H3V6Z" fill="#FAFAFA"/>
<path d="M20 3H3V6H20V3Z" fill="#C8C6C4" stroke="#3A3A38"/>
<path d="M12 12H21V14L18 16.5V21H15V16.5L12 14V12Z" fill="#FAFAFA"/>
<path d="M3 6V20H13.5M20 6V10.5M21 12H12V14L15 16.5V21H18V16.5L21 14V12Z" stroke="#3A3A38"/>
<path d="M6 9H9V12H6V9Z" fill="#C8C6C4"/>
<path d="M6 14H9V17H6V14Z" fill="#C8C6C4"/>
<path d="M6 9H9V12H6V9Z" stroke="#797774"/>
<path d="M6 14H9V17H6V14Z" stroke="#797774"/>
</svg>
