<svg width="36" height="36" viewBox="0 0 36 36" fill="none" xmlns="http://www.w3.org/2000/svg">
<path d="M3.5 29.5V6.5H32.5V29.5H3.5Z" fill="#FAFAFA" stroke="#3A3A38"/>
<path d="M2.5 7.5V5.5H4.5V7.5H2.5Z" fill="#278AC9"/>
<path d="M31.5 7.5V5.5H33.5V7.5H31.5Z" fill="#278AC9"/>
<path d="M31.5 28.5H33.5V30.5H31.5V28.5Z" fill="#278AC9"/>
<path d="M2.5 28.5H4.5V30.5H2.5V28.5Z" fill="#278AC9"/>
<path d="M2.5 7.5V5.5H4.5V7.5H2.5Z" stroke="#278AC9"/>
<path d="M31.5 7.5V5.5H33.5V7.5H31.5Z" stroke="#278AC9"/>
<path d="M31.5 28.5H33.5V30.5H31.5V28.5Z" stroke="#278AC9"/>
<path d="M2.5 28.5H4.5V30.5H2.5V28.5Z" stroke="#278AC9"/>
<path d="M14.5401 24.5H12.8782L17.685 11.4091H19.3214L24.1282 24.5H22.4663L18.5543 13.4801H18.4521L14.5401 24.5ZM15.1538 19.3864H21.8526V20.7926H15.1538V19.3864Z" fill="#278AC9"/>
</svg>
