<svg width="24" height="24" viewBox="0 0 24 24" fill="none" xmlns="http://www.w3.org/2000/svg">
<path d="M11.5 3.5H20.5V8.5V14.5V20.5H15.5H11.5V8.5V3.5Z" fill="#FAFAFA"/>
<path d="M11.5 8.5H15.5M11.5 8.5V3.5H20.5V8.5M11.5 8.5V20.5H15.5M20.5 8.5H15.5M20.5 8.5V14.5M15.5 8.5V14.5M15.5 20.5H20.5V14.5M15.5 20.5V14.5M15.5 14.5H20.5" stroke="#3A3A38"/>
<path d="M3.5 3.5H11.5V12.5V20.5H3.5V12.5V3.5Z" fill="#85BEE9"/>
<path d="M3.5 12.5V20.5H11.5V12.5M3.5 12.5V3.5H11.5V12.5M3.5 12.5H11.5" stroke="#0C63AD"/>
</svg>
